<svg width="321" height="120" viewBox="0 0 321 120" fill="none" xmlns="http://www.w3.org/2000/svg">
<rect x="2" y="2" width="317" height="115" fill="#D9D9D9"/>
<path d="M2 2H318.89" stroke="white" stroke-width="4" stroke-linecap="round"/>
<path d="M2 117.39H318.89" stroke="white" stroke-width="4" stroke-linecap="round"/>
<path d="M2 3.94292L2 115.447" stroke="white" stroke-width="4" stroke-linecap="round"/>
<path d="M318.89 3.94292V115.447" stroke="white" stroke-width="4" stroke-linecap="round"/>
<path d="M64.3166 83.4301V36.8846H84.4984C88.0438 36.8846 91.0211 37.3619 93.4302 38.3164C95.8545 39.271 97.6802 40.6194 98.9075 42.3619C100.15 44.1043 100.771 46.1573 100.771 48.521C100.771 50.2331 100.392 51.7937 99.6348 53.2028C98.8923 54.6119 97.8469 55.7937 96.4984 56.7482C95.1499 57.6876 93.5742 58.3391 91.7711 58.7028V59.1573C93.7711 59.2331 95.5893 59.7407 97.2257 60.6801C98.862 61.6043 100.165 62.8846 101.135 64.521C102.104 66.1422 102.589 68.0513 102.589 70.2482C102.589 72.7937 101.923 75.0588 100.589 77.0437C99.2711 79.0285 97.3923 80.5891 94.9529 81.7255C92.5135 82.8619 89.6045 83.4301 86.2257 83.4301H64.3166ZM76.9529 73.3391H82.862C84.9832 73.3391 86.5742 72.9452 87.6348 72.1573C88.6954 71.3543 89.2257 70.1725 89.2257 68.6119C89.2257 67.521 88.9757 66.5967 88.4757 65.8391C87.9757 65.0816 87.2635 64.5058 86.3393 64.1119C85.4302 63.7179 84.3317 63.521 83.0438 63.521H76.9529V73.3391ZM76.9529 55.7028H82.1348C83.2408 55.7028 84.2181 55.5285 85.0666 55.1801C85.9151 54.8316 86.5742 54.3316 87.0438 53.6801C87.5287 53.0134 87.7711 52.2028 87.7711 51.2482C87.7711 49.8088 87.256 48.7104 86.2257 47.9528C85.1954 47.1801 83.8923 46.7937 82.3166 46.7937H76.9529V55.7028ZM124.067 84.0664C120.279 84.0664 117.036 83.3164 114.339 81.8164C111.642 80.3013 109.574 78.1952 108.135 75.4982C106.695 72.7861 105.976 69.6422 105.976 66.0664C105.976 62.4907 106.695 59.3543 108.135 56.6573C109.574 53.9452 111.642 51.8391 114.339 50.3391C117.036 48.824 120.279 48.0664 124.067 48.0664C127.854 48.0664 131.097 48.824 133.794 50.3391C136.491 51.8391 138.559 53.9452 139.998 56.6573C141.438 59.3543 142.157 62.4907 142.157 66.0664C142.157 69.6422 141.438 72.7861 139.998 75.4982C138.559 78.1952 136.491 80.3013 133.794 81.8164C131.097 83.3164 127.854 84.0664 124.067 84.0664ZM124.157 74.7937C125.218 74.7937 126.135 74.4376 126.907 73.7255C127.68 73.0134 128.279 71.9982 128.703 70.6801C129.127 69.3619 129.339 67.7937 129.339 65.9755C129.339 64.1422 129.127 62.574 128.703 61.271C128.279 59.9528 127.68 58.9376 126.907 58.2255C126.135 57.5134 125.218 57.1573 124.157 57.1573C123.036 57.1573 122.074 57.5134 121.271 58.2255C120.468 58.9376 119.854 59.9528 119.43 61.271C119.006 62.574 118.794 64.1422 118.794 65.9755C118.794 67.7937 119.006 69.3619 119.43 70.6801C119.854 71.9982 120.468 73.0134 121.271 73.7255C122.074 74.4376 123.036 74.7937 124.157 74.7937ZM159.067 67.4301L168.794 48.521H180.612V83.4301H168.794V64.4301L159.067 83.4301H147.248V48.521H159.067V67.4301ZM168.43 35.9755H176.339C176.324 38.9301 175.195 41.2937 172.953 43.0664C170.711 44.824 167.688 45.7028 163.885 45.7028C160.051 45.7028 157.014 44.824 154.771 43.0664C152.529 41.2937 151.415 38.9301 151.43 35.9755H159.248C159.233 36.9301 159.574 37.8088 160.271 38.6119C160.983 39.3997 162.188 39.7937 163.885 39.7937C165.506 39.7937 166.665 39.4073 167.362 38.6346C168.059 37.8619 168.415 36.9755 168.43 35.9755ZM184.334 57.8846V48.521H218.152V57.8846H207.061V83.4301H195.243V57.8846H184.334ZM234.629 67.4301L244.356 48.521H256.175V83.4301H244.356V64.4301L234.629 83.4301H222.811V48.521H234.629V67.4301Z" fill="white"/>
</svg>
