<svg width="90" height="90" viewBox="0 0 90 90" fill="none" xmlns="http://www.w3.org/2000/svg">
<path d="M42.5208 89.5331C42.2495 89.5104 41.3389 89.4353 40.4974 89.3664C39.6559 89.2974 38.8913 89.2012 38.7983 89.1525C38.7053 89.1039 38.0865 88.9823 37.4233 88.8825C35.6959 88.6224 33.8497 88.2156 32.7096 87.8438C32.1669 87.6669 31.1557 87.341 30.4623 87.1195C29.7689 86.898 29.1523 86.6785 29.092 86.6316C29.0317 86.5848 28.4644 86.3465 27.8314 86.1022C26.7653 85.6908 24.0766 84.4026 23.7522 84.1478C23.6745 84.0868 23.1751 83.8072 22.6425 83.5266C22.1099 83.2459 21.5991 82.9413 21.5074 82.8496C21.4158 82.758 21.1609 82.59 20.9411 82.4763C20.4286 82.2112 18.4812 80.8533 17.9105 80.363C17.6694 80.1558 17.242 79.8306 16.9609 79.6404C16.6798 79.4502 16.4331 79.2569 16.4128 79.211C16.3925 79.165 16.1045 78.9059 15.7729 78.6352C15.4413 78.3645 15.0458 78.0192 14.894 77.8678C14.7422 77.7165 14.2489 77.2422 13.7978 76.8139C13.3466 76.3855 12.5966 75.6209 12.1311 75.1147C11.6655 74.6086 11.1283 74.0319 10.9372 73.8333C10.7461 73.6347 10.4417 73.2647 10.2607 73.0111C10.0798 72.7576 9.8177 72.4268 9.67838 72.276C9.30558 71.8727 8.35378 70.5779 7.78476 69.6999C7.51123 69.2779 7.20668 68.8454 7.10799 68.7389C7.0093 68.6323 6.86042 68.4103 6.77716 68.2456C6.69389 68.0808 6.35942 67.502 6.03389 66.9594C5.70836 66.4167 5.32263 65.7031 5.17671 65.3736C5.03079 65.044 4.84232 64.698 4.75789 64.6047C4.67346 64.5114 4.37386 63.8931 4.09212 63.2307C3.81038 62.5683 3.54125 61.977 3.49406 61.9167C3.44687 61.8564 3.18041 61.1658 2.90194 60.382C2.62346 59.5982 2.34157 58.8625 2.27553 58.7471C2.14489 58.5189 1.55138 56.3819 1.253 55.0653C1.15052 54.6131 1.02328 54.1445 0.97026 54.0239C0.678539 53.3605 0.236369 49.9138 0.0737231 47.0355C-0.0245744 45.2959 -0.0245744 44.2257 0.0737231 42.4861C0.236369 39.6078 0.678539 36.1611 0.97026 35.4977C1.02328 35.3771 1.15052 34.9085 1.253 34.4563C1.55474 33.1249 2.14563 31.0012 2.27738 30.7745C2.34444 30.6591 2.62206 29.9275 2.89431 29.1486C3.16657 28.3697 3.43219 27.6791 3.48459 27.6139C3.53699 27.5486 3.81038 26.9533 4.09212 26.2909C4.37386 25.6285 4.67315 25.0105 4.75721 24.9176C4.84126 24.8248 5.04396 24.4541 5.20764 24.094C5.37132 23.7339 5.62917 23.2419 5.78064 23.0008C5.93212 22.7596 6.29863 22.143 6.59512 21.6305C6.89161 21.118 7.16992 20.674 7.21359 20.6439C7.25725 20.6137 7.51553 20.2438 7.78754 19.8217C8.34808 18.952 9.30045 17.6545 9.67838 17.2456C9.8177 17.0949 10.0798 16.7641 10.2607 16.5105C10.4417 16.2569 10.7461 15.8869 10.9372 15.6883C11.1283 15.4897 11.6655 14.913 12.1311 14.4069C12.5966 13.9007 13.3445 13.1361 13.793 12.7077C14.2415 12.2794 14.7987 11.7475 15.0313 11.5258C15.2638 11.3041 15.6984 10.9363 15.9971 10.7085C16.2958 10.4807 16.5403 10.2592 16.5403 10.2162C16.5403 10.1732 16.7224 10.0254 16.945 9.88786C17.1676 9.75028 17.5825 9.43794 17.8669 9.19378C18.7268 8.45563 21.2785 6.75967 22.7407 5.95448C23.2334 5.68316 23.7048 5.40665 23.7882 5.34002C23.9895 5.17913 26.0513 4.20052 26.1889 4.20052C26.2482 4.20052 26.2966 4.15628 26.2966 4.10222C26.2966 4.04816 26.7776 3.82064 27.3655 3.59663C27.9533 3.37263 28.6809 3.07675 28.9824 2.93912C29.2839 2.8015 30.1225 2.50642 30.846 2.2834C31.5695 2.06037 32.5068 1.75989 32.9288 1.61567C33.8282 1.30832 35.7222 0.896036 37.4233 0.637317C38.0865 0.536449 38.7278 0.411394 38.8484 0.359418C39.9602 -0.119806 49.5758 -0.119806 50.6876 0.359418C50.8082 0.411394 51.4495 0.536449 52.1127 0.637317C53.8138 0.896036 55.7078 1.30832 56.6072 1.61567C57.0293 1.75989 57.9666 2.06037 58.6901 2.2834C59.4136 2.50642 60.2522 2.8015 60.5537 2.93912C60.8551 3.07675 61.5827 3.37263 62.1706 3.59663C62.7584 3.82064 63.2394 4.04816 63.2394 4.10222C63.2394 4.15628 63.2879 4.20052 63.3471 4.20052C63.4848 4.20052 65.5466 5.17913 65.7479 5.34002C65.8313 5.40665 66.3026 5.68316 66.7953 5.95448C68.2575 6.75967 70.8092 8.45563 71.6691 9.19378C71.9536 9.43794 72.3684 9.75028 72.591 9.88786C72.8137 10.0254 72.9958 10.175 72.9958 10.2201C72.9958 10.2653 73.2055 10.4538 73.4617 10.6392C73.7179 10.8245 74.1529 11.1905 74.4283 11.4525C74.7038 11.7145 75.2957 12.2784 75.7438 12.7056C76.1919 13.1327 76.9409 13.8974 77.4083 14.4047C77.8756 14.9121 78.4026 15.4752 78.5793 15.6561C78.7559 15.8369 79.0589 16.2069 79.2524 16.4782C79.446 16.7495 79.7183 17.0949 79.8577 17.2456C80.2356 17.6545 81.188 18.952 81.7485 19.8217C82.0205 20.2438 82.2788 20.6137 82.3225 20.6439C82.3661 20.674 82.6444 21.118 82.9409 21.6305C83.2374 22.143 83.6039 22.7596 83.7554 23.0008C83.9069 23.2419 84.1647 23.7339 84.3284 24.094C84.4921 24.4541 84.6948 24.8248 84.7788 24.9176C84.8629 25.0105 85.1622 25.6285 85.4439 26.2909C85.7257 26.9533 85.9948 27.5446 86.042 27.6049C86.0892 27.6652 86.3556 28.3558 86.6341 29.1396C86.9126 29.9234 87.1943 30.6589 87.2602 30.774C87.4393 31.0869 88.4032 34.6609 88.7412 36.2651C89.3548 39.1775 89.6527 43.6771 89.4578 47.0903C89.3251 49.4138 89.0475 51.8026 88.7412 53.2565C88.4032 54.8607 87.4393 58.4347 87.2602 58.7476C87.1943 58.8627 86.9126 59.5982 86.6341 60.382C86.3556 61.1658 86.0894 61.8564 86.0424 61.9167C85.9954 61.977 85.7689 62.4703 85.5391 63.0129C85.3092 63.5556 85.0315 64.1475 84.9218 64.3284C84.8122 64.5093 84.5783 64.9576 84.4021 65.3246C84.2259 65.6916 83.8181 66.4315 83.496 66.9689C83.1738 67.5063 82.8422 68.0808 82.7589 68.2456C82.6756 68.4103 82.5268 68.6323 82.4281 68.7389C82.3294 68.8454 82.0248 69.2779 81.7513 69.6999C81.1823 70.5779 80.2305 71.8727 79.8577 72.276C79.7183 72.4268 79.446 72.7721 79.2524 73.0434C79.0589 73.3147 78.7559 73.6847 78.5793 73.8656C78.4026 74.0464 77.8756 74.6095 77.4083 75.1169C76.9409 75.6243 76.1908 76.3889 75.7414 76.816C75.292 77.2432 74.7709 77.7422 74.5834 77.9249C74.3959 78.1077 73.999 78.453 73.7013 78.6923C73.4037 78.9316 73.1436 79.165 73.1232 79.211C73.1029 79.2569 72.8563 79.4502 72.5751 79.6404C72.294 79.8306 71.8667 80.1558 71.6255 80.363C71.0548 80.8533 69.1075 82.2112 68.5949 82.4763C68.3751 82.59 68.1203 82.758 68.0286 82.8496C67.9369 82.9413 67.4261 83.2459 66.8935 83.5266C66.3609 83.8072 65.8616 84.0868 65.7838 84.1478C65.4595 84.4026 62.7707 85.6908 61.7047 86.1022C61.0716 86.3465 60.5043 86.5848 60.444 86.6316C60.3837 86.6785 59.7671 86.898 59.0737 87.1195C58.3804 87.341 57.3691 87.6669 56.8265 87.8438C55.6924 88.2136 53.8528 88.6197 52.1127 88.8843C51.4495 88.9852 50.8082 89.1098 50.6876 89.1613C50.136 89.3969 44.1461 89.6696 42.5208 89.5331ZM49.0981 84.7742C50.6548 84.6203 52.6484 84.3198 52.7156 84.2289C52.7458 84.1882 53.1404 84.0902 53.5926 84.0111C54.6407 83.8279 57.3498 83.1425 57.4262 83.0412C57.4581 82.9988 58.1395 82.7474 58.9405 82.4825C59.7414 82.2176 60.5553 81.9167 60.7492 81.8139C60.9431 81.7111 61.5457 81.4391 62.0884 81.2094C62.631 80.9797 63.1983 80.7093 63.349 80.6085C63.4998 80.5076 64.0181 80.2242 64.5008 79.9787C64.9835 79.7331 65.6495 79.3569 65.9807 79.1426C67.311 78.2821 68.9813 77.144 69.1611 76.9756C69.266 76.8774 69.6414 76.5862 69.9953 76.3285C70.6702 75.8373 70.9128 75.6246 71.8996 74.6595C72.2312 74.3351 72.6382 73.9812 72.804 73.8728C72.9698 73.7645 73.1054 73.5848 73.1054 73.4734C73.1054 73.1731 72.6673 72.0568 72.5494 72.0568C72.4935 72.0568 72.447 71.9951 72.4461 71.9198C72.4422 71.5779 70.5121 68.022 70.0626 67.5284C69.9423 67.3963 69.7102 67.0729 69.5469 66.8098C68.7141 65.4677 66.1194 62.6433 64.5549 61.3757C64.2836 61.1559 63.9629 60.89 63.8423 60.7848C63.3509 60.3562 62.7082 59.8887 62.6103 59.8887C62.5529 59.8887 62.4171 59.7905 62.3085 59.6704C61.8888 59.2067 58.2209 57.1481 57.8142 57.1481C57.7232 57.1481 57.6487 57.1024 57.6487 57.0465C57.6487 56.9485 56.5396 56.4882 55.4014 56.1138C55.0999 56.0146 54.7053 55.8652 54.5244 55.7818C54.0665 55.5707 52.2157 55.121 50.9069 54.9028C50.304 54.8023 49.712 54.6764 49.5914 54.623C48.6382 54.2013 40.8978 54.2013 39.9446 54.623C39.8241 54.6764 39.2321 54.8023 38.6292 54.9028C37.3204 55.121 35.4695 55.5707 35.0116 55.7818C34.8308 55.8652 34.4361 56.0146 34.1347 56.1138C32.9964 56.4882 31.8874 56.9485 31.8874 57.0465C31.8874 57.1024 31.8129 57.1481 31.7218 57.1481C31.3152 57.1481 27.6473 59.2067 27.2276 59.6704C27.1189 59.7905 26.9831 59.8887 26.9258 59.8887C26.8279 59.8887 26.1851 60.3562 25.6937 60.7848C25.5731 60.89 25.2525 61.1559 24.9812 61.3757C23.4166 62.6433 20.8219 65.4677 19.9891 66.8098C19.8258 67.0729 19.5938 67.3963 19.4735 67.5284C19.0239 68.022 17.0939 71.5779 17.0899 71.9198C17.089 71.9951 17.0426 72.0568 16.9866 72.0568C16.8688 72.0568 16.4306 73.1731 16.4306 73.4734C16.4306 73.5848 16.5482 73.7529 16.6919 73.8471C16.8355 73.9412 17.2425 74.2935 17.5962 74.63C17.95 74.9665 18.3874 75.3809 18.5683 75.5509C18.7491 75.7209 19.1867 76.0709 19.5407 76.3285C19.8947 76.5862 20.2701 76.8774 20.375 76.9756C20.5548 77.144 22.225 78.2821 23.5554 79.1426C23.8866 79.3569 24.5525 79.7331 25.0353 79.9787C25.518 80.2242 26.0363 80.5076 26.187 80.6085C26.3378 80.7093 26.9051 80.9797 27.4477 81.2094C27.9903 81.4391 28.5929 81.7111 28.7868 81.8139C28.9807 81.9167 29.7947 82.2176 30.5956 82.4825C31.3965 82.7474 32.0779 82.9988 32.1099 83.0412C32.1862 83.1425 34.8954 83.8279 35.9434 84.0111C36.3956 84.0902 36.7903 84.1882 36.8204 84.2289C36.9343 84.3828 40.1662 84.782 42.466 84.9262C43.5565 84.9946 47.868 84.8958 49.0981 84.7742ZM13.142 69.4885C13.142 69.4024 13.2084 69.2655 13.2896 69.1843C13.3707 69.1031 13.6122 68.688 13.8261 68.2618C14.2932 67.3311 14.4894 66.9778 14.5801 66.9045C14.6174 66.8744 14.8115 66.5784 15.0115 66.2468C16.6718 63.4931 20.0834 59.6779 22.6791 57.6718C23.0107 57.4156 23.356 57.1347 23.4465 57.0476C23.5369 56.9605 23.9315 56.674 24.3234 56.4107C24.7153 56.1475 25.1923 55.8234 25.3834 55.6906C26.2905 55.0598 27.5225 54.3224 28.3213 53.9321C28.8055 53.6955 29.2263 53.47 29.2565 53.4309C29.3161 53.3536 30.8222 52.6536 30.9289 52.6536C30.9649 52.6536 31.3556 52.4873 31.7972 52.284C32.2387 52.0807 32.9576 51.7997 33.3947 51.6595C33.8318 51.5193 34.1895 51.3739 34.1895 51.3363C34.1895 51.2371 33.7111 50.8368 33.2279 50.5318C32.05 49.7882 29.0775 46.9909 28.5334 46.1139C28.427 45.9425 28.2872 45.7529 28.2227 45.6926C28.0347 45.5169 27.5025 44.7827 27.5025 44.699C27.5025 44.657 27.3355 44.3902 27.1315 44.1061C26.2669 42.9027 25.1571 40.2907 24.7082 38.4027C24.6007 37.9505 24.4753 37.5312 24.4296 37.4709C24.2516 37.2361 24.0575 35.1957 24.0542 33.5245C24.051 31.9252 24.2582 29.7678 24.4279 29.6329C24.4659 29.6028 24.5871 29.1835 24.6974 28.7011C24.9523 27.5856 25.5154 25.9033 25.7093 25.6779C25.7912 25.5827 25.8582 25.4688 25.8582 25.4247C25.8582 25.2662 26.7642 23.4344 26.9486 23.22C27.0523 23.0994 27.2637 22.7788 27.4183 22.5075C28.2955 20.9676 30.7473 18.3482 32.5451 17.0297C32.8767 16.7865 33.263 16.5013 33.4034 16.3959C33.5439 16.2904 34.0372 15.9874 34.4996 15.7224C34.9621 15.4574 35.3652 15.2107 35.3953 15.1743C35.4733 15.08 36.2147 14.7441 36.9845 14.4543C37.3464 14.3181 37.8747 14.1009 38.1584 13.9716C39.4627 13.3774 42.5372 12.8607 44.768 12.8607C46.9989 12.8607 50.0734 13.3774 51.3777 13.9716C51.6614 14.1009 52.1896 14.3181 52.5516 14.4543C53.3214 14.7441 54.0628 15.08 54.1407 15.1743C54.1709 15.2107 54.5739 15.4574 55.0364 15.7224C55.4989 15.9874 55.9922 16.2904 56.1326 16.3959C56.2731 16.5013 56.6593 16.7836 56.9909 17.0232C58.7037 18.2605 61.25 20.9844 62.1178 22.5075C62.2724 22.7788 62.4837 23.0994 62.5875 23.22C62.7719 23.4344 63.6779 25.2662 63.6779 25.4247C63.6779 25.4688 63.7455 25.5827 63.8281 25.6779C63.9954 25.8707 64.5605 27.549 64.8275 28.6463C64.9229 29.0382 65.0449 29.4575 65.0986 29.5781C65.3137 30.0605 65.4798 31.7561 65.4799 33.4697C65.48 35.1803 65.2886 37.2306 65.1064 37.4709C65.0607 37.5312 64.9353 37.9505 64.8278 38.4027C64.7203 38.8549 64.5142 39.5904 64.3698 40.037C64.0694 40.9663 62.77 43.6989 62.481 44.0091C62.3748 44.1231 62.2193 44.3512 62.1355 44.516C61.9875 44.8071 61.5767 45.4028 61.2887 45.7438C61.2107 45.8362 60.9712 46.1338 60.7567 46.4051C59.7593 47.6662 57.6682 49.6245 56.4692 50.4204C55.7801 50.8778 55.3466 51.2315 55.3466 51.3363C55.3466 51.3739 55.7042 51.5193 56.1413 51.6595C56.5785 51.7997 57.2974 52.0807 57.7389 52.284C58.1804 52.4873 58.5711 52.6536 58.6071 52.6536C58.7117 52.6536 60.2191 53.3527 60.2796 53.4292C60.3097 53.4673 60.7784 53.7199 61.321 53.9906C61.8636 54.2612 62.6135 54.6877 62.9874 54.9384C63.3613 55.1891 63.7101 55.3942 63.7625 55.3942C63.8148 55.3942 64.0515 55.5574 64.2885 55.7568C64.5254 55.9563 64.9141 56.2377 65.1522 56.3822C66.4053 57.1426 69.0391 59.4768 70.856 61.4372C71.939 62.6057 73.8014 65.0474 74.5246 66.2468C74.7245 66.5784 74.9186 66.8744 74.956 66.9045C75.0466 66.9778 75.2429 67.3311 75.71 68.2618C75.9239 68.688 76.1653 69.1031 76.2465 69.1843C76.3277 69.2655 76.3941 69.4024 76.3941 69.4885C76.3941 69.7841 76.6684 69.6367 76.9773 69.1752C77.1473 68.9212 77.5523 68.3433 77.8772 67.8911C78.2022 67.4389 78.47 67.0264 78.4725 66.9744C78.4749 66.9224 78.6049 66.7251 78.7614 66.5359C79.3919 65.7737 81.2961 62.0953 81.8805 60.5106C82.0623 60.0178 82.3024 59.442 82.4142 59.231C82.617 58.8482 83.5195 55.8413 83.5195 55.5485C83.5195 55.4636 83.5621 55.3942 83.6142 55.3942C83.785 55.3942 84.4398 51.804 84.6226 49.8646C84.6911 49.1376 84.8038 48.4247 84.8729 48.2804C85.048 47.9147 85.048 41.6069 84.8729 41.2413C84.8038 41.0969 84.6911 40.384 84.6226 39.657C84.4398 37.7177 83.785 34.1274 83.6142 34.1274C83.5621 34.1274 83.5195 34.058 83.5195 33.9731C83.5195 33.6803 82.617 30.6734 82.4142 30.2907C82.3024 30.0796 82.0623 29.5038 81.8805 29.011C81.2961 27.4263 79.3919 23.7479 78.7614 22.9857C78.6049 22.7966 78.4769 22.6093 78.4769 22.5697C78.4769 22.503 77.9476 21.7194 76.9909 20.3698C76.7773 20.0684 76.4692 19.6787 76.3064 19.504C76.1436 19.3292 75.9283 19.0632 75.828 18.9128C75.4164 18.2956 73.3986 16.19 72.0524 14.9728C71.6367 14.5969 71.1487 14.1505 70.9678 13.9807C70.7869 13.8108 70.3493 13.4587 69.9953 13.1982C69.6414 12.9377 69.266 12.6442 69.1611 12.546C68.9815 12.3778 67.3004 11.2323 65.9924 10.3868C64.9237 9.69612 62.4883 8.44398 61.4032 8.0274C61.0264 7.88273 60.7181 7.73586 60.7181 7.70103C60.7181 7.66619 59.9905 7.39462 59.1012 7.09754C58.2118 6.80046 57.4581 6.52277 57.4262 6.48045C57.3498 6.37915 54.6407 5.6937 53.5926 5.51049C53.1404 5.43145 52.7458 5.33345 52.7156 5.29273C52.6488 5.20244 50.7021 4.90756 48.9885 4.72814C47.3618 4.55783 42.1742 4.55783 40.5476 4.72814C38.834 4.90756 36.8872 5.20244 36.8204 5.29273C36.7903 5.33345 36.3956 5.43145 35.9434 5.51049C34.8954 5.6937 32.1862 6.37915 32.1099 6.48045C32.0779 6.52277 31.3242 6.80046 30.4349 7.09754C29.5456 7.39462 28.818 7.66619 28.818 7.70103C28.818 7.73586 28.5097 7.88273 28.1328 8.0274C27.0477 8.44398 24.6123 9.69612 23.5437 10.3868C22.2357 11.2323 20.5546 12.3778 20.375 12.546C20.2701 12.6442 19.8947 12.9381 19.5407 13.199C19.1867 13.4599 18.7367 13.8235 18.5407 14.007C18.3446 14.1905 17.9007 14.5934 17.5541 14.9023C16.3219 16.0006 14.1111 18.3096 13.6947 18.9331C13.6017 19.0723 13.3924 19.3292 13.2296 19.504C13.0668 19.6787 12.7588 20.0684 12.5451 20.3698C11.5631 21.7552 11.0591 22.504 11.0591 22.5777C11.0591 22.6217 10.9653 22.7596 10.8506 22.8841C10.2747 23.5091 8.2535 27.3882 7.64835 29.03C7.47057 29.5123 7.23311 30.0805 7.12066 30.2926C7.00821 30.5047 6.7107 31.4173 6.45953 32.3206C6.20835 33.2239 5.95267 34.0549 5.89135 34.1673C5.69267 34.5313 5.14717 37.5354 4.96299 39.2797C4.86432 40.2142 4.72821 41.0969 4.66053 41.2413C4.49012 41.6047 4.49012 47.9169 4.66053 48.2804C4.72821 48.4247 4.86432 49.3074 4.96299 50.2419C5.14717 51.9863 5.69267 54.9903 5.89135 55.3543C5.95267 55.4667 6.20835 56.2977 6.45953 57.201C6.7107 58.1043 7.00821 59.0169 7.12066 59.229C7.23311 59.4411 7.47379 60.0178 7.65552 60.5106C8.23994 62.0953 10.1441 65.7737 10.7746 66.5359C10.9311 66.7251 11.0611 66.9224 11.0636 66.9744C11.066 67.0264 11.3339 67.4389 11.6588 67.8911C11.9837 68.3433 12.3887 68.9212 12.5587 69.1752C12.8677 69.6367 13.142 69.7841 13.142 69.4885ZM47.6182 49.4272C49.3682 49.1558 50.9735 48.7111 51.2687 48.4159C51.3496 48.3349 51.4874 48.2687 51.5749 48.2687C51.783 48.2687 53.5267 47.3946 53.5753 47.2659C53.596 47.2113 53.8021 47.0701 54.0334 46.9521C55.3588 46.2759 57.6469 43.879 58.5844 42.1847C58.7512 41.8832 58.923 41.6119 58.9661 41.5818C59.0756 41.5052 59.6662 40.1146 59.8973 39.3893C60.0029 39.0577 60.133 38.731 60.1863 38.6634C60.3585 38.4447 60.7004 36.6307 60.8346 35.2237C61.0524 32.9402 60.7319 29.6492 60.1674 28.3723C60.1141 28.2517 59.875 27.6248 59.6361 26.9793C59.3972 26.3337 59.0743 25.6385 58.9185 25.4342C58.7627 25.23 58.6353 25.0176 58.6353 24.9622C58.6353 24.864 57.8977 23.713 57.7648 23.6037C57.7281 23.5735 57.4974 23.2932 57.2521 22.9807C56.688 22.262 55.2512 20.9394 54.2875 20.2517C52.6616 19.0915 50.2619 18.0905 48.3578 17.7782C47.8907 17.7016 47.4734 17.5875 47.4304 17.5245C47.3229 17.3672 42.2131 17.3672 42.1057 17.5245C42.0627 17.5875 41.6453 17.7016 41.1783 17.7782C39.2742 18.0905 36.8744 19.0915 35.2485 20.2517C34.2848 20.9394 32.848 22.262 32.284 22.9807C32.0387 23.2932 31.808 23.5735 31.7713 23.6037C31.6384 23.713 30.9008 24.864 30.9008 24.9622C30.9008 25.0176 30.7733 25.23 30.6176 25.4342C30.4618 25.6385 30.1388 26.3337 29.8999 26.9793C29.661 27.6248 29.422 28.2517 29.3686 28.3723C28.8042 29.6492 28.4837 32.9402 28.7014 35.2237C28.8356 36.6307 29.1775 38.4447 29.3498 38.6634C29.4031 38.731 29.5331 39.0577 29.6388 39.3893C29.8699 40.1146 30.4605 41.5052 30.5699 41.5818C30.6131 41.6119 30.7848 41.8832 30.9516 42.1847C31.8891 43.879 34.1773 46.2759 35.5026 46.9521C35.7339 47.0701 35.9401 47.2113 35.9607 47.2659C36.0094 47.3946 37.7531 48.2687 37.9612 48.2687C38.0486 48.2687 38.1864 48.3349 38.2673 48.4159C38.5498 48.6983 40.1455 49.1498 41.8082 49.4178C43.0159 49.6124 46.3892 49.6179 47.6182 49.4272Z" fill="white"/>
</svg>
