<svg width="178" height="206" viewBox="0 0 178 206" fill="none" xmlns="http://www.w3.org/2000/svg">
<g clip-path="url(#clip0_86_2)">
<path d="M160.584 34.791H16.684C7.4697 34.791 0 42.1645 0 51.2601V158.515C0 167.61 7.4697 174.984 16.684 174.984H160.584C169.798 174.984 177.268 167.61 177.268 158.515V51.2601C177.268 42.1645 169.798 34.791 160.584 34.791Z" fill="#484848"/>
<path d="M120.302 77.0752H91.1045V61.0796H172.126V77.0752H143.075V154.603H120.302V77.0752Z" fill="white"/>
<path d="M12.8003 61.0796H86.5229V77.0752H35.574V99.9877H81.7054V115.983H35.574V154.603H12.8003V61.0796Z" fill="white"/>
<path d="M93.0135 62.3767V75.7578H170.177V62.3767L93.0135 62.3767Z" fill="#484848"/>
<path d="M33.3681 62.9941H15.0156V152.545H33.3681V62.9941Z" fill="#484848"/>
<path d="M140.563 77.6104H122.836V152.339H140.563V77.6104Z" fill="#484848"/>
</g>
<defs>
<clipPath id="clip0_86_2">
<rect width="177.268" height="205.863" fill="white"/>
</clipPath>
</defs>
</svg>
